<svg width="191" height="196" viewBox="0 0 191 196" fill="none" xmlns="http://www.w3.org/2000/svg">
<path d="M3 157.15C3 140.14 16.7896 126.35 33.8 126.35H64.6V157.15C64.6 174.161 50.8104 187.95 33.8 187.95C16.7896 187.95 3 174.161 3 157.15Z" fill="#6AAA64"/>
<path d="M64.6 95.5504C64.6 78.5402 78.3896 64.7504 95.3998 64.7504C112.41 64.7504 126.2 78.54 126.2 95.5504C126.2 112.561 112.41 126.35 95.3998 126.35C78.3896 126.35 64.6 112.561 64.6 95.5504Z" fill="#C9B458"/>
<path d="M3 95.5504C3 112.561 16.7896 126.35 33.8 126.35H64.6V64.7504H33.8C16.7896 64.7504 3 78.54 3 95.5504Z" fill="#6AAA64"/>
<path d="M64.6 3.15039V64.7504H95.3998C112.41 64.7504 126.2 50.9608 126.2 33.9504C126.2 16.94 112.41 3.15039 95.4 3.15039H64.6Z" fill="#6AAA64"/>
<path d="M3 33.9504C3 50.9608 16.7896 64.7504 33.8 64.7504H64.6V3.15039H49.2H33.8C16.7896 3.15039 3 16.94 3 33.9504Z" fill="#6AAA64"/>
<path d="M64.6 126.35H33.8M64.6 126.35V157.15C64.6 174.161 50.8104 187.95 33.8 187.95C16.7896 187.95 3 174.161 3 157.15C3 140.14 16.7896 126.35 33.8 126.35M64.6 126.35V64.7504M33.8 126.35C16.7896 126.35 3 112.561 3 95.5504C3 78.54 16.7896 64.7504 33.8 64.7504M95.3998 64.7504C112.41 64.7504 126.2 78.54 126.2 95.5504C126.2 112.561 112.41 126.35 95.3998 126.35C78.3896 126.35 64.6 112.561 64.6 95.5504C64.6 78.5402 78.3896 64.7504 95.3998 64.7504ZM95.3998 64.7504H64.6M95.3998 64.7504C112.41 64.7504 126.2 50.9608 126.2 33.9504C126.2 16.94 112.41 3.15039 95.4 3.15039H64.6M64.6 64.7504H33.8M64.6 64.7504V3.15039M33.8 64.7504C16.7896 64.7504 3 50.9608 3 33.9504C3 16.94 16.7896 3.15039 33.8 3.15039H49.2H64.6" stroke="black" stroke-width="4.62"/>
<path d="M188.2 38.8C188.2 55.8104 174.41 69.6 157.4 69.6H126.6V38.8C126.6 21.7896 140.39 8 157.4 8C174.41 8 188.2 21.7896 188.2 38.8Z" fill="white"/>
<path d="M188.2 100.4C188.2 83.3896 174.41 69.6 157.4 69.6H126.6V131.2H157.4C174.41 131.2 188.2 117.41 188.2 100.4Z" fill="white"/>
<path d="M126.6 192.8V131.2H95.8C78.7896 131.2 65 144.99 65 162C65 179.01 78.7896 192.8 95.8 192.8H126.6Z" fill="white"/>
<path d="M188.2 162C188.2 144.99 174.41 131.2 157.4 131.2H126.6V192.8H157.4C174.41 192.8 188.2 179.01 188.2 162Z" fill="white"/>
<path d="M126.6 69.6H157.4M126.6 69.6V38.8C126.6 21.7896 140.39 8 157.4 8C174.41 8 188.2 21.7896 188.2 38.8C188.2 55.8104 174.41 69.6 157.4 69.6M126.6 69.6V131.2M157.4 69.6C174.41 69.6 188.2 83.3896 188.2 100.4C188.2 117.41 174.41 131.2 157.4 131.2M126.6 131.2H157.4M126.6 131.2V192.8M126.6 131.2H95.8C78.7896 131.2 65 144.99 65 162C65 179.01 78.7896 192.8 95.8 192.8H126.6M157.4 131.2C174.41 131.2 188.2 144.99 188.2 162C188.2 179.01 174.41 192.8 157.4 192.8H126.6" stroke="black" stroke-width="4.62"/>
</svg>
