<svg width="191" height="195" viewBox="0 0 191 195" fill="none" xmlns="http://www.w3.org/2000/svg">
<path d="M188.2 38.6494C188.2 55.6598 174.41 69.4494 157.4 69.4494H126.6V38.6494C126.6 21.639 140.39 7.84941 157.4 7.84941C174.41 7.84941 188.2 21.639 188.2 38.6494Z" fill="#6AAA64"/>
<path d="M126.6 100.249C126.6 117.26 112.81 131.049 95.8001 131.049C78.7898 131.049 64.9999 117.26 64.9999 100.249C64.9999 83.239 78.7898 69.4494 95.8001 69.4494C112.81 69.4494 126.6 83.2392 126.6 100.249Z" fill="#C9B458"/>
<path d="M188.2 100.249C188.2 83.239 174.41 69.4494 157.4 69.4494H126.6V131.049H157.4C174.41 131.049 188.2 117.26 188.2 100.249Z" fill="#6AAA64"/>
<path d="M126.6 192.649V131.049H95.8001C78.7898 131.049 64.9999 144.839 64.9999 161.849C64.9999 178.86 78.7896 192.649 95.7999 192.649H126.6Z" fill="#6AAA64"/>
<path d="M188.2 161.849C188.2 144.839 174.41 131.049 157.4 131.049H126.6V192.649H142H157.4C174.41 192.649 188.2 178.86 188.2 161.849Z" fill="#6AAA64"/>
<path d="M126.6 69.4494H157.4M126.6 69.4494V38.6494C126.6 21.639 140.39 7.84941 157.4 7.84941C174.41 7.84941 188.2 21.639 188.2 38.6494C188.2 55.6598 174.41 69.4494 157.4 69.4494M126.6 69.4494V131.049M157.4 69.4494C174.41 69.4494 188.2 83.239 188.2 100.249C188.2 117.26 174.41 131.049 157.4 131.049M95.8001 131.049C78.7898 131.049 64.9999 117.26 64.9999 100.249C64.9999 83.239 78.7898 69.4494 95.8001 69.4494C112.81 69.4494 126.6 83.2392 126.6 100.249C126.6 117.26 112.81 131.049 95.8001 131.049ZM95.8001 131.049H126.6M95.8001 131.049C78.7898 131.049 64.9999 144.839 64.9999 161.849C64.9999 178.86 78.7896 192.649 95.7999 192.649H126.6M126.6 131.049H157.4M126.6 131.049V192.649M157.4 131.049C174.41 131.049 188.2 144.839 188.2 161.849C188.2 178.86 174.41 192.649 157.4 192.649H142H126.6" stroke="black" stroke-width="4.62"/>
<path d="M2.99997 157C2.99997 139.989 16.7896 126.2 33.8 126.2H64.5999V157C64.5999 174.01 50.8103 187.8 33.8 187.8C16.7896 187.8 2.99997 174.01 2.99997 157Z" fill="white"/>
<path d="M2.99997 95.3998C2.99997 112.41 16.7896 126.2 33.8 126.2H64.5999V64.5998H33.8C16.7896 64.5998 2.99997 78.3894 2.99997 95.3998Z" fill="white"/>
<path d="M64.5999 2.9998V64.5998H95.4C112.41 64.5998 126.2 50.8102 126.2 33.7998C126.2 16.7894 112.41 2.9998 95.4 2.9998H64.5999Z" fill="white"/>
<path d="M2.99997 33.7998C2.99997 50.8102 16.7896 64.5998 33.8 64.5998H64.5999V2.9998H33.8C16.7896 2.9998 2.99997 16.7894 2.99997 33.7998Z" fill="white"/>
<path d="M64.5999 126.2H33.8M64.5999 126.2V157C64.5999 174.01 50.8103 187.8 33.8 187.8C16.7896 187.8 2.99997 174.01 2.99997 157C2.99997 139.989 16.7896 126.2 33.8 126.2M64.5999 126.2V64.5998M33.8 126.2C16.7896 126.2 2.99997 112.41 2.99997 95.3998C2.99997 78.3894 16.7896 64.5998 33.8 64.5998M64.5999 64.5998H33.8M64.5999 64.5998V2.9998M64.5999 64.5998H95.4C112.41 64.5998 126.2 50.8102 126.2 33.7998C126.2 16.7894 112.41 2.9998 95.4 2.9998H64.5999M33.8 64.5998C16.7896 64.5998 2.99997 50.8102 2.99997 33.7998C2.99997 16.7894 16.7896 2.9998 33.8 2.9998H64.5999" stroke="black" stroke-width="4.62"/>
</svg>
