<svg width="191" height="191" viewBox="0 0 191 191" fill="none" xmlns="http://www.w3.org/2000/svg">
<path d="M3 157.15C3 140.14 16.7896 126.35 33.8 126.35H64.6V157.15C64.6 174.161 50.8104 187.95 33.8 187.95C16.7896 187.95 3 174.161 3 157.15Z" fill="#6AAA64"/>
<path d="M64.6 95.5503C64.6 78.5401 78.3896 64.7502 95.3998 64.7502C112.41 64.7502 126.2 78.5399 126.2 95.5503C126.2 112.561 112.41 126.35 95.3998 126.35C78.3896 126.35 64.6 112.56 64.6 95.5503Z" fill="#C9B458"/>
<path d="M3 95.5503C3 112.561 16.7896 126.35 33.8 126.35H64.6V64.7502H33.8C16.7896 64.7502 3 78.5399 3 95.5503Z" fill="#6AAA64"/>
<path d="M64.6 3.15024V64.7502H95.3998C112.41 64.7502 126.2 50.9606 126.2 33.9502C126.2 16.9399 112.41 3.15024 95.4 3.15024H64.6Z" fill="#6AAA64"/>
<path d="M3 33.9502C3 50.9606 16.7896 64.7502 33.8 64.7502H64.6V3.15024H33.8C16.7896 3.15024 3 16.9399 3 33.9502Z" fill="#6AAA64"/>
<path d="M187.8 33.8C187.8 50.8104 174.01 64.6 157 64.6H126.2V33.8C126.2 16.7896 139.99 3 157 3C174.01 3 187.8 16.7896 187.8 33.8Z" fill="white"/>
<path d="M187.8 95.4C187.8 78.3896 174.01 64.6 157 64.6H126.2V126.2H157C174.01 126.2 187.8 112.41 187.8 95.4Z" fill="white"/>
<path d="M126.2 187.8V126.2H95.4C78.3896 126.2 64.6 139.99 64.6 157C64.6 174.01 78.3896 187.8 95.4 187.8H126.2Z" fill="white"/>
<path d="M187.8 157C187.8 139.99 174.01 126.2 157 126.2H126.2V187.8H157C174.01 187.8 187.8 174.01 187.8 157Z" fill="white"/>
<path d="M64.6 126.35H33.8M64.6 126.35V157.15C64.6 174.161 50.8104 187.95 33.8 187.95C16.7896 187.95 3 174.161 3 157.15C3 140.14 16.7896 126.35 33.8 126.35M64.6 126.35V64.7502M33.8 126.35C16.7896 126.35 3 112.561 3 95.5503C3 78.5399 16.7896 64.7502 33.8 64.7502M95.3998 64.7502C112.41 64.7502 126.2 78.5399 126.2 95.5503C126.2 112.561 112.41 126.35 95.3998 126.35C78.3896 126.35 64.6 112.56 64.6 95.5503C64.6 78.5401 78.3896 64.7502 95.3998 64.7502ZM95.3998 64.7502H64.6M95.3998 64.7502C112.41 64.7502 126.2 50.9606 126.2 33.9502C126.2 16.9399 112.41 3.15024 95.4 3.15024H64.6M64.6 64.7502H33.8M64.6 64.7502V3.15024M33.8 64.7502C16.7896 64.7502 3 50.9606 3 33.9502C3 16.9399 16.7896 3.15024 33.8 3.15024H64.6M126.2 64.6H157M126.2 64.6V33.8C126.2 16.7896 139.99 3 157 3C174.01 3 187.8 16.7896 187.8 33.8C187.8 50.8104 174.01 64.6 157 64.6M126.2 64.6V126.2M157 64.6C174.01 64.6 187.8 78.3896 187.8 95.4C187.8 112.41 174.01 126.2 157 126.2M126.2 126.2H157M126.2 126.2V187.8M126.2 126.2H95.4C78.3896 126.2 64.6 139.99 64.6 157C64.6 174.01 78.3896 187.8 95.4 187.8H126.2M157 126.2C174.01 126.2 187.8 139.99 187.8 157C187.8 174.01 174.01 187.8 157 187.8H126.2" stroke="black" stroke-width="4.62"/>
</svg>
